HIERARCHY
ROOT Hips
{
	OFFSET 0.000000 0.000000 0.000000
	CHANNELS 6 Xposition Yposition Zposition Xrotation Yrotation Zrotation
	JOINT LeftUpLeg_virtual
	{
		OFFSET 0.000000 0.000000 0.000000
		CHANNELS 3 Xrotation Yrotation Zrotation
		JOINT LeftUpLeg
		{
			OFFSET 13.026900 -6.336304 -1.092800
			CHANNELS 3 Xrotation Yrotation Zrotation
			JOINT LeftLeg
			{
				OFFSET 0.524474 -46.096886 9.782700
				CHANNELS 3 Xrotation Yrotation Zrotation
				JOINT LeftFoot
				{
					OFFSET -0.524474 -53.427422 -12.948200
					CHANNELS 3 Xrotation Yrotation Zrotation
					JOINT LeftToeBase
					{
						OFFSET 0.192200 -14.009700 16.364100
						CHANNELS 3 Xrotation Yrotation Zrotation
						JOINT LeftToe_End
						{
							OFFSET -1.784700 -0.561700 9.474800
							CHANNELS 3 Xrotation Yrotation Zrotation
							End Site
							{
								OFFSET 0 0 0
							}
						}
					}
				}
			}
		}
	}
	JOINT RightUpLeg_virtual
	{
		OFFSET 0.000000 0.000000 0.000000
		CHANNELS 3 Xrotation Yrotation Zrotation
		JOINT RightUpLeg
		{
			OFFSET -12.883000 -6.336304 -1.092800
			CHANNELS 3 Xrotation Yrotation Zrotation
			JOINT RightLeg
			{
				OFFSET -0.524587 -46.096825 9.782800
				CHANNELS 3 Xrotation Yrotation Zrotation
				JOINT RightFoot
				{
					OFFSET 0.524587 -53.427383 -12.948300
					CHANNELS 3 Xrotation Yrotation Zrotation
					JOINT RightToeBase
					{
						OFFSET -0.192200 -14.009700 16.364100
						CHANNELS 3 Xrotation Yrotation Zrotation
						JOINT RightToe_End
						{
							OFFSET 1.784700 -0.561700 9.474800
							CHANNELS 3 Xrotation Yrotation Zrotation
							End Site
							{
								OFFSET 0 0 0
							}
						}
					}
				}
			}
		}
	}
	JOINT Spine_virtual
	{
		OFFSET 0.000000 0.000000 0.000000
		CHANNELS 3 Xrotation Yrotation Zrotation
		JOINT Spine
		{
			OFFSET 0.072000 7.257294 -0.789700
			CHANNELS 3 Xrotation Yrotation Zrotation
			JOINT Spine1
			{
				OFFSET 0.000000 12.508769 -0.658067
				CHANNELS 3 Xrotation Yrotation Zrotation
				JOINT Spine1_split
				{
					OFFSET 0.000000 12.508769 -0.658067
					CHANNELS 3 Xrotation Yrotation Zrotation
					JOINT Spine2
					{
						OFFSET 0.000000 12.508769 -0.658067
						CHANNELS 3 Xrotation Yrotation Zrotation
						JOINT Neck_virtual
						{
							OFFSET 0.000000 0.000000 0.000000
							CHANNELS 3 Xrotation Yrotation Zrotation
							JOINT Neck
							{
								OFFSET 0.000000 14.033295 7.520400
								CHANNELS 3 Xrotation Yrotation Zrotation
								JOINT Head
								{
									OFFSET 0.000000 8.198502 5.703100
									CHANNELS 3 Xrotation Yrotation Zrotation
									JOINT HeadTop_End
									{
										OFFSET 0.000000 17.760803 13.332701
										CHANNELS 3 Xrotation Yrotation Zrotation
										End Site
										{
											OFFSET 0 0 0
										}
									}
								}
							}
						}
						JOINT LeftShoulder_virtual
						{
							OFFSET 0.000000 0.000000 0.000000
							CHANNELS 3 Xrotation Yrotation Zrotation
							JOINT LeftShoulder
							{
								OFFSET 6.292450 5.785301 -0.669000
								CHANNELS 3 Xrotation Yrotation Zrotation
								JOINT LeftShoulder_split
								{
									OFFSET 6.292450 5.785301 -0.669000
									CHANNELS 3 Xrotation Yrotation Zrotation
									JOINT LeftArm
									{
										OFFSET 13.907140 -6.093903 1.965100
										CHANNELS 3 Xrotation Yrotation Zrotation
										JOINT LeftForeArm
										{
											OFFSET 34.140198 0.000000 0.000000
											CHANNELS 3 Xrotation Yrotation Zrotation
											JOINT LeftHand
											{
												OFFSET 40.960209 0.000000 0.000000
												CHANNELS 3 Xrotation Yrotation Zrotation
												End Site
												{
													OFFSET 0 0 0
												}
											}
										}
									}
								}
							}
						}
						JOINT RightShoulder_virtual
						{
							OFFSET 0.000000 0.000000 0.000000
							CHANNELS 3 Xrotation Yrotation Zrotation
							JOINT RightShoulder
							{
								OFFSET -6.292450 5.785301 -0.669000
								CHANNELS 3 Xrotation Yrotation Zrotation
								JOINT RightShoulder_split
								{
									OFFSET -6.292450 5.785301 -0.669000
									CHANNELS 3 Xrotation Yrotation Zrotation
									JOINT RightArm
									{
										OFFSET -13.907140 -6.093903 1.965100
										CHANNELS 3 Xrotation Yrotation Zrotation
										JOINT RightForeArm
										{
											OFFSET -34.140198 0.000000 0.000000
											CHANNELS 3 Xrotation Yrotation Zrotation
											JOINT RightHand
											{
												OFFSET -40.960209 0.000000 0.000000
												CHANNELS 3 Xrotation Yrotation Zrotation
												End Site
												{
													OFFSET 0 0 0
												}
											}
										}
									}
								}
							}
						}
					}
				}
			}
		}
	}
}
MOTION
Frames: 4
Frame Time: 0.03333333
0.188594 63.690857 11.916142 0.000000 0.000000 0.000000 0.144489 0.157851 0.914077 -91.851715 -8.994693 13.334957 81.196954 4.000080 -0.427286 12.387537 -7.102014 -7.798421 -0.103114 -0.000000 0.000001 0.000000 0.000000 0.000000 0.144489 0.157851 0.914077 -93.036500 10.007382 -9.096379 81.263870 -4.060247 -1.316186 13.625241 0.313525 8.685023 -0.191620 0.000004 0.000001 0.000000 0.000000 0.000000 0.144489 0.157851 0.914077 10.430372 0.028637 -1.522671 -0.199255 0.213327 -0.355463 0.000000 0.000000 0.000000 0.000000 0.000000 0.000000 -0.199585 0.248526 -0.300880 -1.001766 -1.284342 0.469464 -8.883495 -4.327063 -5.321560 0.000000 0.000000 0.000000 -0.199585 0.248526 -0.300880 0.823520 -15.262027 -7.868752 0.000000 0.000000 0.000000 4.746720 -21.216444 -54.862210 -0.000063 -62.197492 -0.000080 0.000000 0.000000 0.000000 -0.199585 0.248526 -0.300880 3.171094 -4.378723 8.782886 0.000000 0.000000 0.000000 -3.950251 37.253389 63.733643 0.000010 55.137932 -0.000039 0.000000 0.000000 0.000000 
0.160667 63.824150 11.767246 0.000000 0.000000 0.000000 -0.957285 0.138045 1.101572 -90.573991 -8.683971 13.410197 81.017149 3.953784 -0.424316 12.373356 -7.098652 -7.728314 -0.103114 -0.000001 0.000001 0.000000 0.000000 0.000000 -0.957285 0.138045 1.101572 -91.895134 9.903189 -9.300074 81.169558 -3.842474 -1.324212 13.617072 0.286997 8.442728 -0.191620 0.000004 0.000001 0.000000 0.000000 0.000000 -0.957285 0.138045 1.101572 10.002004 -0.035220 -1.515430 0.733888 0.214279 -0.373963 0.000000 0.000000 0.000000 0.000000 0.000000 0.000000 0.733707 0.243699 -0.324692 -0.761070 -1.231933 0.475966 -10.032739 -4.165829 -4.919812 0.000000 0.000000 0.000000 0.733707 0.243699 -0.324692 0.826522 -15.600726 -7.588855 0.000000 0.000000 0.000000 4.308933 -21.403929 -54.419768 -0.000021 -61.023758 -0.000018 0.000000 0.000000 0.000000 0.733707 0.243699 -0.324692 3.082116 -3.976042 9.440668 0.000000 0.000000 0.000000 -3.601770 37.650772 61.027406 -0.000026 54.399031 0.000031 0.000000 0.000000 0.000000 
0.150713 63.987358 11.611794 0.000000 0.000000 0.000000 -1.988866 0.139518 1.280362 -89.345991 -8.350092 13.447486 80.790496 3.918855 -0.419903 12.375406 -7.095452 -7.617521 -0.103114 -0.000000 0.000001 0.000000 0.000000 0.000000 -1.988866 0.139518 1.280362 -90.768829 9.814915 -9.522132 81.026500 -3.648525 -1.332964 13.614066 0.265795 8.228003 -0.191620 0.000005 0.000001 0.000000 0.000000 0.000000 -1.988866 0.139518 1.280362 9.597160 -0.087932 -1.502018 1.797858 0.233732 -0.404631 0.000000 0.000000 0.000000 0.000000 0.000000 0.000000 1.797881 0.257127 -0.359928 -0.626298 -1.186259 0.506581 -11.780738 -4.001937 -4.557547 0.000000 0.000000 0.000000 1.797881 0.257127 -0.359928 0.840295 -16.448557 -7.432478 0.000000 0.000000 0.000000 4.228455 -20.759378 -53.522954 -0.000009 -62.090299 -0.000005 0.000000 0.000000 0.000000 1.797881 0.257127 -0.359928 2.961169 -3.453756 10.001607 0.000000 0.000000 0.000000 -3.229670 37.555338 57.967003 0.000011 54.696606 -0.000025 0.000000 0.000000 0.000000 
0.161440 64.143303 11.449909 0.000000 0.000000 0.000000 -2.890351 0.138918 1.454764 -88.251843 -8.029460 13.455217 80.561084 3.906242 -0.418369 12.385792 -7.086936 -7.534457 -0.103114 -0.000000 0.000001 0.000000 0.000000 0.000000 -2.890351 0.138918 1.454764 -89.762496 9.757755 -9.746801 80.865629 -3.454777 -1.340503 13.627414 0.245920 8.065209 -0.191620 0.000004 0.000001 0.000000 0.000000 0.000000 -2.890351 0.138918 1.454764 9.215950 -0.136510 -1.483924 2.995975 0.259837 -0.454100 0.000000 0.000000 0.000000 0.000000 0.000000 0.000000 2.996205 0.276799 -0.413456 -0.571548 -1.148196 0.529046 -14.311724 -3.871688 -4.257154 0.000000 0.000000 0.000000 2.996205 0.276799 -0.413456 0.854420 -17.480230 -7.466770 0.000000 0.000000 0.000000 4.195334 -19.562942 -51.961275 0.000023 -66.074751 0.000023 0.000000 0.000000 0.000000 2.996205 0.276799 -0.413456 2.799017 -2.674955 10.502300 0.000000 0.000000 0.000000 -3.038582 36.466452 54.263746 0.000007 57.539672 -0.000020 0.000000 0.000000 0.000000 
